<?xml version="1.0" standalone="no"?>
<!DOCTYPE svg PUBLIC "-//W3C//DTD SVG 20010904//EN"
 "http://www.w3.org/TR/2001/REC-SVG-20010904/DTD/svg10.dtd">
<svg version="1.0" xmlns="http://www.w3.org/2000/svg"
 width="1024.000000pt" height="1024.000000pt" viewBox="0 0 1024.000000 1024.000000"
 preserveAspectRatio="xMidYMid meet">

<g transform="translate(0.000000,1024.000000) scale(0.100000,-0.100000)"
fill="#000000" stroke="none">
<path d="M4838 9087 c-654 -330 -1176 -535 -1773 -696 -426 -115 -852 -185
-1402 -230 -109 -9 -139 -21 -170 -68 -16 -24 -18 -59 -21 -273 -8 -565 57
-1319 184 -2113 l37 -228 -41 -87 c-77 -163 -109 -336 -99 -542 11 -213 57
-342 137 -382 26 -14 60 -18 131 -18 l97 0 22 -54 c32 -79 57 -99 135 -104
l64 -4 67 -122 c282 -510 656 -1021 1070 -1467 338 -363 809 -771 1416 -1226
366 -275 371 -278 427 -278 53 0 84 20 476 314 988 740 1567 1317 2111 2106
158 229 341 526 405 657 18 37 28 48 54 52 43 8 80 50 110 123 26 66 55 218
55 294 l0 47 60 4 c102 7 99 -2 125 410 9 145 29 367 46 493 116 909 165 1577
157 2140 -3 212 -5 243 -21 267 -32 46 -69 56 -282 72 -681 53 -1324 197
-2035 456 -346 126 -605 243 -1033 463 -125 64 -236 117 -246 117 -11 0 -129
-55 -263 -123z m822 -2672 l0 -1195 -32 0 c-18 0 -127 9 -243 19 -115 11 -307
27 -425 37 -118 9 -220 21 -226 26 -7 5 -15 24 -18 43 -4 19 -25 70 -47 114
-116 232 -346 292 -496 128 -49 -54 -114 -179 -147 -285 -33 -104 -70 -302
-92 -493 l-17 -146 -526 -7 c-289 -3 -782 -7 -1095 -8 l-569 -2 -18 23 c-64
79 -65 333 -1 410 19 24 8 23 1067 61 647 23 746 28 797 41 79 20 213 173 284
324 45 93 41 108 -32 113 -71 5 -372 -37 -420 -57 -30 -14 -62 -46 -130 -132
-49 -63 -101 -130 -114 -149 -13 -19 -29 -38 -35 -42 -18 -13 -95 -9 -95 5 0
6 14 116 30 242 88 675 84 635 67 652 -14 14 -25 14 -94 3 -86 -14 -127 -30
-137 -57 -4 -9 -22 -123 -41 -252 -64 -440 -83 -560 -90 -570 -8 -14 -55 -14
-55 0 0 6 23 177 50 381 55 403 57 439 35 458 -18 15 -125 -1 -160 -24 -30
-19 -33 -34 -95 -466 -30 -212 -56 -358 -63 -362 -22 -14 -37 -8 -37 15 0 12
20 177 45 367 25 190 45 361 45 381 0 53 -17 62 -86 50 -69 -13 -97 -30 -112
-68 -6 -15 -31 -176 -57 -358 -25 -181 -48 -344 -50 -361 -5 -30 -38 -53 -49
-35 -3 4 8 101 24 217 77 553 75 531 60 549 -11 14 -25 16 -62 12 -59 -7 -86
-22 -98 -52 -5 -13 -34 -182 -65 -377 -31 -194 -60 -356 -63 -359 -7 -7 -180
-29 -221 -29 -30 0 -27 31 12 120 36 84 78 148 141 219 l42 47 42 253 c23 139
45 257 47 261 12 19 431 146 660 200 226 53 191 27 288 213 103 197 179 331
262 457 216 331 485 465 1080 539 281 35 1052 95 1278 100 l57 1 0 -1195z
m806 897 c160 -119 515 -386 789 -592 273 -206 637 -481 808 -610 l312 -235 3
-42 c2 -24 1 -43 -3 -43 -7 0 -776 549 -1020 729 -208 152 -652 496 -789 610
-14 12 -17 12 -11 2 13 -23 720 -933 1310 -1686 329 -421 377 -485 358 -485
-18 0 -759 100 -1223 165 -173 25 -434 61 -580 80 -146 20 -280 38 -297 41
l-33 6 0 1170 0 1169 43 -31 c23 -17 173 -129 333 -248z m-2736 -1803 c0 -14
-139 -195 -179 -233 -29 -28 -33 -29 -165 -34 -75 -3 -136 -2 -136 2 0 4 43
61 97 126 106 131 91 122 240 139 102 12 143 12 143 0z m700 -214 c70 -36 113
-169 113 -350 1 -184 -33 -299 -103 -359 -125 -105 -245 110 -226 404 16 242
102 364 216 305z m805 -280 c226 -14 416 -27 423 -30 13 -5 17 -184 6 -269
l-7 -46 -448 0 -449 0 0 185 0 185 33 0 c17 0 217 -11 442 -25z m1030 -38 c44
-44 59 -101 59 -227 0 -88 -4 -114 -23 -158 -39 -87 -97 -108 -151 -53 -85 85
-77 393 11 455 36 25 67 20 104 -17z m322 -42 c38 -27 58 -99 58 -210 0 -56
-6 -116 -13 -137 -31 -88 -99 -114 -152 -58 -71 76 -67 318 8 403 19 21 70 22
99 2z m1296 -143 c26 -29 39 -74 39 -143 1 -79 -15 -132 -48 -158 -56 -44
-114 18 -122 130 -5 66 20 163 46 178 27 16 67 13 85 -7z m292 -46 c64 -64 37
-261 -36 -261 -40 0 -69 56 -69 136 0 73 9 106 35 132 23 23 42 21 70 -7z
m-3860 -781 c33 -9 83 -27 111 -41 54 -27 164 -110 164 -124 0 -7 -165 -130
-175 -130 -2 0 -20 14 -39 30 -55 49 -122 74 -196 73 -104 0 -182 -47 -238
-142 -24 -40 -27 -57 -27 -131 0 -102 26 -163 92 -217 103 -85 250 -82 362 7
l50 40 86 -63 86 -62 -55 -51 c-258 -243 -716 -141 -825 184 -28 82 -29 225
-2 311 47 152 174 272 331 313 82 21 198 22 275 3z m1924 0 c82 -20 171 -67
234 -125 l50 -46 -93 -62 -92 -62 -36 31 c-89 78 -220 97 -318 46 -97 -50
-148 -134 -148 -247 -1 -85 22 -143 76 -199 55 -56 103 -76 188 -76 85 0 142
21 202 74 l37 32 80 -58 c44 -32 81 -63 81 -70 0 -19 -97 -100 -153 -127 -88
-43 -171 -59 -272 -53 -201 11 -366 126 -436 305 -19 48 -23 76 -23 172 0 96
4 124 23 172 57 146 193 263 346 297 63 14 184 12 254 -4z m-759 -110 l0 -105
-200 0 -200 0 0 -355 0 -355 -115 0 -115 0 0 460 0 460 315 0 315 0 0 -105z"/>
<path d="M5020 7510 c-58 -4 -129 -8 -157 -9 l-53 -1 -79 -118 c-44 -66 -98
-149 -120 -185 -40 -65 -40 -67 -18 -72 12 -3 173 -41 357 -86 305 -73 592
-139 605 -139 3 0 5 140 5 310 l0 310 -217 -2 c-120 -1 -265 -5 -323 -8z"/>
<path d="M4270 7109 c-396 -40 -855 -99 -931 -119 -50 -14 -83 -63 -181 -268
-61 -128 -148 -327 -148 -339 0 -3 12 -2 28 1 27 6 658 39 967 51 180 7 217
15 233 49 11 25 181 575 190 614 4 20 1 22 -34 21 -22 -1 -77 -6 -124 -10z"/>
<path d="M4503 7025 c-25 -17 -47 -82 -138 -395 -81 -281 -81 -315 0 -354 37
-19 48 -19 224 -8 175 11 421 37 449 47 9 3 12 71 12 293 0 262 -2 290 -17
305 -33 29 -394 126 -473 127 -20 0 -45 -7 -57 -15z m257 -190 c6 -4 10 -85
10 -225 l0 -219 -32 -5 c-18 -3 -54 -7 -80 -10 l-48 -6 0 249 c0 136 3 250 6
253 5 6 124 -24 144 -37z"/>
<path d="M4075 6308 c-99 -13 -596 -86 -683 -100 -47 -7 -76 -17 -82 -27 -4
-9 -22 -88 -39 -176 -18 -88 -41 -206 -52 -263 -11 -57 -19 -107 -17 -113 2
-5 26 55 53 133 l50 143 160 66 c278 115 715 322 715 339 0 11 -7 11 -105 -2z"/>
<path d="M3368 4936 c-26 -7 -54 -18 -62 -26 -22 -17 -20 -57 3 -70 27 -14
317 -12 361 3 40 14 51 45 23 69 -41 36 -229 50 -325 24z"/>
<path d="M1880 4876 c-6 -8 -10 -23 -8 -33 3 -17 31 -18 499 -21 273 -1 514 1
535 6 33 7 39 12 39 32 l0 25 -526 3 c-452 2 -528 0 -539 -12z"/>
<path d="M4353 5118 c-15 -27 -18 -59 -18 -178 0 -151 12 -205 45 -205 33 0
45 55 45 200 0 110 -4 148 -17 178 -21 45 -32 47 -55 5z"/>
<path d="M6188 4878 c-13 -26 -17 -177 -5 -220 4 -16 14 -28 22 -28 24 0 35
44 35 141 0 117 -22 161 -52 107z"/>
<path d="M6520 4824 c-16 -40 -12 -177 4 -200 25 -33 41 -2 44 89 5 114 -23
178 -48 111z"/>
<path d="M7823 4725 c-13 -32 -10 -152 5 -167 10 -10 15 -10 22 2 15 24 12
143 -4 166 -14 19 -15 19 -23 -1z"/>
<path d="M8126 4684 c-9 -25 -7 -107 4 -124 9 -13 11 -13 20 0 18 28 11 140
-10 140 -4 0 -11 -7 -14 -16z"/>
</g>
</svg>
