<?xml version="1.0" standalone="no"?>
<!DOCTYPE svg PUBLIC "-//W3C//DTD SVG 20010904//EN"
 "http://www.w3.org/TR/2001/REC-SVG-20010904/DTD/svg10.dtd">
<svg version="1.0" xmlns="http://www.w3.org/2000/svg"
 width="1024.000000pt" height="1024.000000pt" viewBox="0 0 1024.000000 1024.000000"
 preserveAspectRatio="xMidYMid meet">
<metadata>
Created by potrace 1.16, written by Peter Selinger 2001-2019
</metadata>
<g transform="translate(0.000000,1024.000000) scale(0.100000,-0.100000)"
fill="#000000" stroke="none">
<path d="M5115 9452 c-51 -24 -57 -32 -121 -155 -29 -56 -58 -101 -64 -99 -6
1 -9 -2 -5 -7 7 -12 -21 -71 -34 -71 -4 0 -8 -6 -8 -14 0 -24 -166 -316 -176
-309 -6 3 -7 1 -3 -5 4 -6 1 -22 -5 -34 -17 -31 -39 -129 -28 -122 5 3 9 -5 9
-18 0 -13 5 -29 12 -36 9 -9 9 -12 -3 -12 -7 0 -3 -6 11 -13 14 -8 24 -19 23
-25 -2 -7 3 -11 10 -9 6 1 11 -5 9 -13 -2 -8 0 -12 3 -8 4 4 22 0 39 -9 26
-14 58 -16 188 -14 149 2 157 1 151 -16 -14 -36 -50 -93 -55 -87 -3 3 -5 -1
-4 -8 0 -7 -17 -46 -38 -87 -32 -59 -41 -70 -47 -55 -7 17 -8 17 -8 -3 -1 -23
-14 -28 -106 -38 -35 -4 -44 -2 -30 4 11 5 15 10 8 10 -19 1 -43 -11 -38 -19
7 -11 -71 -29 -98 -23 -18 4 -19 3 -7 -6 13 -9 13 -11 -1 -11 -8 0 -52 -18
-97 -40 -46 -22 -90 -37 -100 -34 -11 4 -13 3 -5 -3 8 -6 -1 -17 -32 -36 -24
-16 -48 -29 -52 -30 -4 -1 -17 -11 -28 -22 -73 -69 -107 -95 -117 -89 -6 4 -9
3 -5 -2 3 -5 -15 -32 -40 -59 -47 -54 -125 -163 -163 -233 -17 -30 -26 -39
-33 -30 -5 9 -6 6 -2 -8 3 -12 -5 -45 -20 -77 -13 -31 -30 -77 -36 -102 -7
-26 -16 -42 -22 -38 -6 3 -7 1 -3 -5 3 -6 3 -30 0 -54 -6 -32 -9 -37 -14 -23
-4 11 -7 -87 -6 -218 0 -130 3 -232 6 -227 7 11 32 -96 34 -142 0 -14 4 -24 7
-22 12 7 38 -81 33 -107 -3 -15 -1 -30 5 -34 8 -5 10 2 6 22 -4 17 6 5 25 -32
18 -33 43 -79 56 -103 14 -23 22 -47 19 -52 -3 -6 0 -10 7 -10 15 -1 84 -95
81 -110 -2 -6 1 -9 5 -7 4 1 36 -28 70 -64 l62 -67 0 -181 c0 -143 -3 -181
-12 -175 -10 6 -10 4 0 -7 23 -25 12 -37 -55 -60 -38 -12 -74 -24 -82 -27 -10
-4 -12 -1 -6 8 5 9 4 11 -4 6 -6 -4 -9 -11 -6 -15 7 -12 -71 -40 -97 -35 -18
4 -19 3 -5 -4 15 -6 6 -14 -48 -44 -36 -21 -71 -36 -78 -34 -7 1 -9 1 -5 -1 4
-2 -37 -34 -90 -70 -100 -68 -263 -195 -296 -232 -10 -11 -23 -18 -29 -14 -5
3 -7 2 -4 -4 6 -9 -106 -128 -121 -128 -4 0 -6 -4 -4 -8 3 -11 -100 -133 -111
-129 -4 1 -6 -1 -3 -6 9 -15 -25 -54 -41 -47 -13 4 -14 3 -3 -10 12 -14 7 -19
-13 -16 -5 1 -6 -3 -3 -8 8 -12 -43 -87 -56 -83 -5 1 -7 -2 -3 -8 8 -14 -26
-70 -38 -63 -6 3 -7 1 -3 -5 10 -16 -66 -164 -77 -149 -6 8 -7 6 -3 -5 3 -10
-11 -55 -30 -100 -39 -92 -75 -199 -100 -302 -13 -51 -19 -64 -24 -50 -4 11
-7 -1 -6 -31 0 -27 -7 -102 -17 -166 -9 -64 -17 -164 -18 -222 -2 -89 -4 -105
-15 -96 -9 7 -14 7 -14 1 0 -5 7 -15 15 -22 14 -11 14 -16 -2 -39 -15 -24 -15
-25 0 -12 16 12 17 8 17 -55 0 -38 7 -114 16 -169 9 -55 16 -120 16 -144 0
-30 3 -40 9 -30 6 10 9 8 9 -11 1 -14 16 -77 34 -140 19 -63 31 -121 28 -129
-4 -10 -1 -12 7 -6 10 6 11 2 6 -15 -4 -13 -3 -20 2 -17 8 5 39 -59 82 -166 2
-5 -1 -7 -8 -3 -7 5 -11 -1 -11 -15 0 -16 3 -19 13 -11 10 9 20 -2 45 -47 20
-36 30 -66 26 -77 -4 -14 -3 -15 4 -6 7 11 10 10 16 -3 3 -9 6 -26 7 -38 0
-13 3 -16 6 -9 3 8 23 -13 49 -53 25 -36 42 -71 38 -77 -4 -6 -3 -8 3 -5 13 8
67 -59 59 -72 -3 -5 2 -15 12 -22 16 -13 16 -12 3 6 -8 11 4 0 27 -25 23 -25
39 -51 37 -58 -3 -7 -1 -11 3 -8 12 7 84 -69 75 -79 -5 -4 -3 -5 4 -2 16 10
64 -50 56 -69 -5 -13 -1 -15 13 -10 15 4 30 -5 59 -35 22 -23 34 -39 28 -35
-7 4 -13 2 -13 -4 0 -6 8 -9 18 -6 11 4 31 -7 57 -30 22 -19 33 -32 25 -28
-13 7 -13 6 0 -10 8 -11 16 -14 18 -7 4 12 62 -27 62 -41 0 -5 -4 -7 -9 -4
-11 7 -23 -22 -15 -35 3 -5 11 -9 17 -9 7 0 6 4 -3 10 -13 9 -13 11 0 20 19
13 46 7 42 -9 -1 -7 2 -10 7 -7 5 4 36 -11 68 -32 32 -22 73 -47 92 -57 27
-13 31 -19 20 -27 -11 -8 -10 -9 4 -4 22 7 88 -24 80 -38 -3 -6 -3 -8 1 -4 10
9 66 -11 66 -24 0 -5 4 -7 8 -4 4 2 36 -8 71 -24 35 -15 59 -30 55 -32 -5 -3
-3 -3 5 -1 25 6 111 -30 111 -46 0 -12 2 -13 8 -4 8 13 52 7 52 -7 0 -5 -8
-11 -17 -13 -10 -3 -6 -4 9 -4 15 1 24 5 21 10 -5 8 7 6 107 -18 359 -88 742
-85 1104 6 64 16 81 18 88 7 7 -10 9 -9 5 4 -4 12 2 18 25 23 17 4 62 20 102
37 39 16 79 27 89 24 9 -2 15 0 11 5 -3 5 7 14 22 19 21 8 30 8 37 -2 7 -10 8
-9 4 3 -7 22 102 76 115 57 8 -10 9 -9 5 4 -6 18 18 32 36 21 7 -3 9 -2 4 2
-9 11 124 96 140 90 7 -2 12 -1 10 4 -4 14 122 103 134 95 7 -4 9 -3 5 4 -3 6
8 21 26 33 17 13 58 47 91 76 33 29 64 50 70 46 5 -3 7 -1 4 4 -6 10 21 42 30
36 1 -2 3 0 4 5 1 14 31 41 42 38 7 -2 9 -1 4 2 -11 6 52 82 66 79 6 -1 11 4
12 10 0 20 119 172 129 166 5 -4 6 -2 3 4 -8 12 41 79 54 75 6 -1 8 2 5 7 -8
12 72 147 85 143 6 -1 8 2 5 7 -4 5 1 26 11 45 12 26 19 33 26 24 6 -9 7 -8 3
4 -5 17 27 102 35 93 3 -2 5 4 6 13 2 24 89 253 94 248 2 -2 4 8 5 22 1 15 11
70 23 122 37 158 52 296 53 480 1 267 -26 444 -103 687 -22 68 -37 129 -33
135 4 6 3 8 -4 4 -13 -8 -26 29 -16 46 4 7 4 10 -1 6 -10 -10 -145 260 -139
277 3 7 1 16 -5 20 -7 4 -9 -1 -5 -12 5 -16 4 -16 -10 2 -9 11 -14 25 -11 33
2 7 1 10 -5 7 -5 -3 -14 5 -21 17 -7 13 -36 56 -66 96 -30 40 -51 78 -47 84 4
6 3 8 -3 5 -14 -9 -47 29 -37 44 4 7 3 10 -3 6 -10 -6 -190 182 -186 195 2 4
-1 7 -6 5 -5 -1 -33 18 -62 43 -30 25 -82 68 -116 94 -35 27 -60 53 -56 59 3
6 1 7 -5 3 -15 -9 -94 43 -85 57 3 6 1 7 -5 3 -6 -3 -45 14 -86 38 -85 50
-187 99 -293 141 l-73 28 0 208 0 207 41 44 c61 64 155 183 185 233 14 25 30
45 35 45 5 0 8 3 7 8 -5 15 25 71 35 65 5 -3 7 -2 4 4 -9 15 24 94 36 86 6 -3
7 -1 3 5 -4 7 4 47 18 89 14 43 30 112 37 153 15 96 14 283 -2 380 -7 41 -12
95 -12 120 1 26 -2 38 -6 27 -5 -13 -11 -3 -24 40 -10 32 -38 100 -63 152 -48
103 -49 105 -32 95 7 -4 8 -3 4 5 -4 6 -11 9 -15 6 -12 -7 -63 73 -56 86 4 5
3 8 -2 7 -5 -2 -31 22 -58 52 -26 30 -59 66 -72 79 -18 19 -21 26 -11 34 9 6
7 7 -6 3 -12 -4 -33 6 -65 32 -25 21 -61 48 -79 61 -18 12 -30 27 -27 32 4 5
-2 6 -11 2 -13 -5 -15 -3 -9 7 5 8 4 11 -3 6 -6 -4 -35 7 -64 23 -72 41 -229
100 -283 108 -25 3 -48 10 -51 15 -7 10 35 80 45 74 4 -3 7 3 7 13 0 25 136
241 148 234 5 -3 6 -1 3 4 -4 6 7 37 24 70 34 64 34 106 2 167 -10 17 -16 34
-15 39 1 4 -1 6 -5 5 -5 0 -28 8 -53 20 -39 19 -63 22 -190 22 -102 0 -150 4
-160 13 -12 10 -12 9 -1 -5 12 -16 10 -18 -17 -18 -24 0 -30 4 -26 15 4 8 10
12 15 9 5 -3 7 1 4 8 -3 7 42 96 100 198 58 101 108 200 111 218 9 48 -22 117
-69 155 -48 40 -131 48 -192 19z m39 -1597 c3 -8 11 -15 18 -14 10 0 10 2 1 6
-35 13 -5 18 65 10 95 -11 265 -64 256 -79 -4 -7 -3 -8 4 -4 16 10 94 -32 86
-46 -4 -7 -3 -8 5 -4 19 12 157 -96 146 -114 -3 -4 3 -7 13 -6 11 1 17 -6 17
-19 1 -11 6 -19 13 -18 12 3 62 -57 62 -75 0 -7 4 -12 8 -12 10 0 9 -36 -1
-46 -10 -10 13 -34 32 -33 10 0 8 4 -8 10 -18 7 -21 12 -12 23 6 7 8 16 4 19
-3 4 -3 7 0 7 11 0 68 -120 62 -130 -4 -6 -2 -10 3 -10 5 0 14 -18 20 -40 5
-22 6 -37 1 -34 -15 9 -10 -8 6 -20 41 -31 44 -299 6 -441 -31 -112 -92 -231
-117 -227 -14 2 -16 1 -5 -6 18 -13 -24 -74 -117 -173 -68 -70 -71 -72 -126
-77 -42 -3 -56 -1 -56 9 0 10 -3 10 -12 1 -16 -16 -31 -15 -22 1 6 9 5 9 -8 0
-8 -7 -18 -10 -22 -6 -11 11 -46 14 -46 3 0 -6 -9 -10 -21 -10 -11 0 -17 5
-14 10 3 6 1 10 -4 10 -6 0 -11 -6 -11 -12 0 -10 -2 -10 -8 -1 -5 8 -13 9 -22
3 -9 -6 -20 -4 -29 3 -12 10 -13 9 -7 -1 7 -11 4 -12 -12 -3 -14 7 -23 8 -27
1 -3 -5 -22 -10 -41 -10 -21 0 -33 4 -29 10 3 6 1 10 -4 10 -6 0 -11 -4 -11
-10 0 -6 -29 -10 -66 -10 -49 0 -63 3 -58 13 6 9 4 9 -8 -1 -19 -16 -120 -14
-111 2 3 6 0 5 -8 -1 -17 -16 -73 -18 -63 -2 4 7 0 9 -14 5 -39 -13 -62 -15
-57 -5 8 12 -6 11 -25 -1 -9 -6 -17 -5 -23 3 -7 9 -10 9 -14 0 -3 -8 -25 -13
-59 -13 -45 0 -54 3 -54 18 0 13 -2 14 -9 4 -18 -29 -249 252 -236 286 3 7 1
10 -5 7 -20 -12 -97 208 -85 246 5 14 3 19 -3 15 -15 -9 -26 129 -17 211 14
144 64 295 128 393 52 78 98 130 109 124 6 -4 8 -2 5 3 -4 6 1 17 10 24 14 12
16 12 8 0 -5 -10 -4 -12 4 -7 6 4 9 11 6 16 -7 11 50 52 59 42 4 -4 6 -1 4 6
-5 20 121 94 146 86 15 -4 17 -2 8 4 -24 16 150 71 216 68 23 -1 37 1 30 5 -7
4 14 10 47 12 33 2 67 4 76 5 9 1 19 -5 23 -13z m429 -1991 c-1 -42 -3 -77 -5
-79 -2 -2 -61 3 -133 11 -213 23 -564 17 -722 -12 l-33 -6 0 71 0 71 48 1 c46
2 46 2 12 9 -19 4 161 8 400 9 l435 1 -2 -76z m-358 -408 c11 -8 25 -15 30
-16 6 0 3 5 -5 10 -11 7 -2 9 30 9 37 -1 41 -2 20 -9 -24 -8 -23 -8 8 -9 18
-1 31 3 27 8 -3 6 10 8 32 4 114 -17 197 -33 273 -54 72 -19 81 -24 60 -31
-19 -6 -17 -7 12 -4 40 5 218 -57 218 -75 0 -6 4 -8 10 -4 21 13 328 -170 323
-193 -2 -6 3 -9 10 -7 17 7 129 -83 121 -97 -4 -7 -3 -8 4 -4 13 8 94 -62 86
-75 -3 -5 0 -8 8 -7 7 2 12 -3 10 -10 -1 -8 2 -11 6 -8 13 8 104 -93 96 -106
-4 -6 -2 -8 4 -4 13 8 76 -70 67 -84 -4 -6 -1 -9 6 -8 16 4 90 -102 84 -119
-2 -7 0 -12 6 -10 5 1 21 -18 35 -43 14 -25 19 -36 10 -26 -16 19 -16 19 -16
-2 0 -16 6 -22 23 -22 22 -1 22 -1 2 -16 -19 -15 -19 -15 -1 -12 14 2 26 -8
43 -37 12 -22 21 -46 18 -53 -3 -7 -1 -11 4 -8 10 6 25 -24 16 -32 -3 -3 -5 0
-5 6 0 7 -4 12 -8 12 -5 0 -9 -7 -9 -15 0 -8 4 -15 9 -15 5 0 6 -6 2 -12 -6
-10 -4 -10 8 0 14 11 19 3 42 -59 14 -39 24 -74 21 -79 -3 -5 -1 -10 3 -12 11
-4 57 -171 71 -253 6 -33 9 -75 6 -92 -2 -18 0 -33 5 -33 6 0 10 -71 10 -176
0 -97 -4 -173 -9 -170 -5 3 -7 -13 -5 -37 3 -40 -5 -101 -27 -216 -8 -39 -14
-50 -21 -40 -6 10 -8 5 -5 -16 2 -16 2 -24 0 -17 -3 7 -9 10 -14 6 -5 -3 -7
-10 -4 -15 4 -5 1 -9 -5 -9 -6 0 -8 -5 -5 -10 4 -6 11 -7 17 -4 8 5 9 1 5 -10
-4 -10 -7 -23 -8 -29 0 -7 -5 -3 -10 8 -8 16 -8 15 -4 -8 4 -17 -4 -56 -20
-100 -39 -108 -123 -279 -134 -273 -5 4 -13 1 -17 -5 -4 -8 -3 -9 4 -5 28 17
8 -19 -98 -173 -19 -28 -41 -49 -47 -46 -7 2 -13 0 -13 -6 0 -6 -5 -7 -12 -3
-7 4 -8 3 -4 -5 4 -6 13 -8 19 -4 7 4 -5 -13 -25 -38 -20 -24 -42 -43 -48 -41
-6 1 -9 -1 -6 -6 8 -13 -140 -156 -153 -148 -7 4 -9 1 -5 -8 5 -14 -31 -43
-48 -38 -5 1 -7 -4 -5 -11 1 -6 -4 -11 -10 -10 -7 2 -13 -1 -13 -7 0 -15 -108
-93 -119 -86 -5 4 -13 1 -17 -5 -4 -8 -3 -9 4 -5 7 4 12 5 12 2 0 -10 -119
-76 -131 -73 -8 2 -10 2 -6 -1 12 -6 -33 -32 -143 -82 -133 -59 -197 -79 -252
-75 -29 2 -45 -1 -42 -7 3 -5 12 -7 20 -4 8 3 14 1 14 -4 0 -6 -2 -10 -4 -10
-3 0 -58 -12 -123 -26 -79 -18 -150 -27 -213 -27 -55 -1 -85 -4 -70 -8 14 -4
-43 -7 -126 -8 -83 -1 -153 2 -157 5 -3 3 -43 8 -89 10 -66 3 -266 40 -235 43
4 1 2 7 -5 15 -7 8 -17 12 -22 9 -4 -3 -2 -9 5 -14 28 -18 -12 -9 -114 25
-155 51 -191 67 -175 78 9 7 8 8 -6 4 -22 -8 -78 17 -196 87 -104 62 -151 97
-145 107 3 4 -3 7 -13 6 -9 0 -16 4 -15 11 2 7 -3 10 -10 7 -14 -5 -46 24 -46
41 0 5 -5 11 -13 13 -9 2 -8 0 2 -7 8 -6 10 -11 4 -11 -16 0 -55 45 -47 55 5
4 2 5 -5 1 -15 -9 -104 73 -95 87 3 6 1 7 -5 4 -5 -4 -41 27 -78 69 -55 61
-65 77 -53 86 11 8 11 9 -3 5 -20 -7 -73 57 -62 75 4 6 3 8 -3 5 -15 -9 -44
38 -37 60 4 13 3 15 -4 5 -7 -11 -18 0 -45 45 -55 91 -78 143 -71 155 4 6 3 8
-3 5 -6 -4 -20 15 -32 42 -24 58 -25 64 -8 56 6 -4 4 0 -6 9 -22 17 -77 183
-106 318 -61 284 -52 624 25 907 31 112 100 288 150 379 41 75 141 232 148
232 3 0 12 -7 20 -16 9 -8 16 -11 16 -5 0 5 -8 14 -17 19 -15 9 -13 14 16 51
18 23 38 38 43 35 6 -4 8 -2 4 4 -8 14 43 74 56 65 6 -3 8 -1 5 4 -15 24 323
315 354 306 5 -2 9 1 9 5 0 13 74 50 89 44 8 -3 11 0 7 6 -8 14 50 45 66 36 6
-4 8 -3 5 3 -3 5 19 21 49 36 59 29 79 34 68 15 -4 -7 -3 -8 5 -4 6 4 9 11 6
16 -6 10 211 90 247 90 4 0 5 -9 3 -20 -2 -11 1 -20 7 -20 5 0 8 7 4 15 -3 8
-1 15 5 15 6 0 7 5 3 12 -5 8 0 9 14 6 12 -4 20 -3 17 2 -6 10 179 43 211 37
13 -2 24 0 24 5 0 5 22 8 50 7 27 -2 52 -1 54 2 3 2 49 6 103 7 76 3 102 0
118 -12z"/>
<path d="M6180 4347 c-30 -8 -72 -21 -93 -30 -29 -13 -44 -14 -60 -6 -20 9
-21 9 -4 -4 19 -15 7 -34 -13 -22 -6 4 -9 3 -8 -2 2 -5 -16 -29 -40 -53 -46
-48 -90 -131 -99 -186 -3 -18 -8 -32 -12 -30 -3 2 -6 -34 -6 -80 0 -46 4 -84
9 -84 4 0 5 -20 2 -45 -5 -27 -3 -45 2 -45 6 0 8 10 6 23 -3 12 6 1 19 -25 13
-25 34 -59 45 -76 12 -16 18 -33 14 -37 -4 -5 -1 -5 6 -1 7 4 15 1 18 -8 3 -9
11 -16 16 -16 16 0 88 -54 88 -67 0 -6 -6 -13 -12 -16 -8 -2 -9 -8 -4 -13 5
-5 11 -4 13 3 3 9 10 10 24 3 15 -8 17 -7 13 5 -5 12 4 11 45 -6 28 -12 48
-25 46 -30 -3 -4 3 -6 12 -4 24 4 127 -38 169 -70 24 -18 31 -31 28 -47 -2
-13 -2 -17 2 -10 9 18 24 15 17 -5 -4 -10 -2 -14 4 -10 23 14 31 -60 13 -109
-35 -92 -149 -130 -247 -83 -52 25 -84 66 -107 133 -24 74 -39 86 -105 86 -62
-1 -122 -19 -152 -46 -27 -24 -25 -106 5 -188 13 -36 20 -69 15 -73 -4 -4 0
-15 9 -23 14 -13 15 -12 9 5 -4 12 2 8 15 -10 72 -94 181 -158 313 -182 77
-14 92 -14 177 1 51 10 101 17 111 17 9 0 15 4 13 8 -3 4 9 15 27 23 49 23
118 85 154 137 69 97 92 258 57 381 -9 30 -16 63 -17 72 -1 9 -4 15 -8 13 -3
-3 -20 15 -37 38 -17 24 -49 56 -71 71 -22 16 -38 32 -36 37 3 4 0 11 -6 15
-8 4 -9 3 -5 -4 11 -18 1 -15 -57 17 -28 16 -69 34 -90 41 -20 6 -35 15 -33
18 2 4 -8 8 -24 9 -31 2 -163 67 -181 89 -43 52 -40 136 7 185 27 28 63 41 48
17 -4 -7 -3 -8 5 -4 6 4 9 12 6 17 -7 10 74 13 99 3 9 -3 13 -11 9 -17 -4 -6
0 -8 9 -4 19 7 48 -24 71 -74 25 -54 39 -62 104 -57 68 5 153 44 168 76 5 12
13 22 17 22 5 0 4 8 0 18 -75 154 -87 174 -135 219 -28 26 -51 50 -50 53 1 3
-6 6 -15 7 -9 1 -43 11 -75 22 -73 27 -185 35 -257 18z"/>
<path d="M3977 4318 c-9 -5 -17 -5 -17 -1 0 4 -10 -8 -21 -27 -12 -19 -49
-120 -81 -225 -33 -104 -63 -194 -66 -200 -4 -5 -7 -14 -9 -20 -14 -67 -95
-303 -89 -263 2 16 -1 25 -6 22 -6 -4 -7 -18 -5 -33 8 -37 -61 -259 -75 -240
-7 10 -8 8 -3 -8 4 -14 -13 -81 -44 -179 -28 -86 -51 -164 -51 -173 0 -20 29
-101 30 -82 0 11 3 11 16 1 8 -8 52 -15 96 -18 88 -5 142 12 153 49 4 11 11
19 16 19 6 0 7 -5 3 -12 -4 -7 -3 -8 5 -4 9 6 9 11 1 21 -8 10 -2 42 23 127
l35 113 210 3 210 2 16 -47 c18 -52 21 -76 6 -53 -7 11 -9 3 -7 -26 1 -23 6
-39 11 -36 5 3 7 -4 4 -16 -4 -13 0 -23 8 -26 17 -7 17 -8 -1 45 -9 24 -12 39
-6 34 5 -6 19 -42 30 -81 29 -99 43 -109 150 -109 88 1 143 6 136 13 -2 3 2
14 10 26 19 27 19 72 0 127 -9 24 -14 52 -11 62 2 9 1 15 -3 12 -11 -6 -94
262 -95 302 0 18 -3 28 -7 22 -8 -14 -52 129 -45 148 3 8 2 11 -4 8 -10 -6
-32 63 -25 76 3 4 1 9 -4 11 -4 1 -47 129 -95 283 -48 154 -94 294 -102 311
-9 18 -27 37 -41 43 -31 14 -231 13 -256 -1z m186 -644 c1 -18 5 -30 8 -28 5
3 49 -140 49 -159 0 -2 -54 -6 -121 -6 -112 -2 -120 -1 -115 16 3 10 22 72 41
138 20 66 41 122 46 123 5 2 7 8 3 13 -5 8 5 50 23 99 7 17 63 -150 66 -196z"/>
<path d="M4837 4319 c-9 -5 -22 -7 -29 -3 -6 4 -8 3 -4 -4 3 -6 2 -13 -4 -17
-7 -4 -10 -234 -10 -678 0 -647 1 -673 19 -704 17 -27 27 -32 77 -39 93 -11
461 2 524 19 41 12 57 12 62 4 5 -8 8 -6 8 5 0 9 9 19 20 23 11 3 42 21 69 40
27 19 52 31 56 27 4 -4 5 -2 4 3 -2 6 12 33 29 60 80 123 94 287 34 415 -16
36 -43 77 -58 92 -71 66 -83 76 -88 70 -18 -18 -1 15 24 46 52 66 73 128 78
229 3 61 8 90 15 86 6 -3 7 -1 3 6 -4 6 -11 9 -15 7 -4 -3 -13 18 -20 45 -16
61 -73 149 -121 185 -62 47 -135 73 -227 82 -131 13 -425 14 -446 1z m462
-293 c50 -26 65 -53 69 -122 3 -45 1 -64 -7 -64 -7 0 -10 -4 -7 -8 10 -16 -26
-54 -68 -73 -29 -13 -65 -19 -123 -19 l-83 0 0 143 c0 83 4 136 9 128 5 -8 16
-11 30 -6 16 5 19 10 12 19 -6 7 -9 15 -6 17 10 10 149 -2 174 -15z m-169
-563 c11 -17 11 -16 5 1 -5 18 -1 19 89 13 102 -7 150 -22 180 -56 18 -20 13
-27 -16 -22 -12 2 -10 -17 2 -24 6 -3 10 0 10 7 0 9 3 9 10 -2 9 -13 10 -13
10 0 0 11 3 10 11 -4 6 -10 9 -43 7 -72 -5 -64 -40 -109 -98 -124 -39 -10
-248 -16 -257 -6 -4 3 3 6 15 6 11 0 24 4 27 10 3 6 -1 7 -9 4 -11 -4 -16 0
-17 12 0 18 -1 17 -9 -1 -5 -12 -9 33 -9 122 -1 138 1 149 31 152 4 1 12 -7
18 -16z"/>
<path d="M7817 5834 c-6 -7 -74 -25 -99 -27 -9 -1 -15 -3 -13 -5 2 -3 -6 -13
-18 -23 -21 -16 -44 -59 -61 -112 -4 -11 -11 -15 -18 -11 -7 4 -5 -2 5 -13 18
-20 24 -48 8 -39 -5 3 -12 -1 -15 -10 -4 -11 -2 -15 8 -11 8 3 20 0 26 -8 9
-11 7 -12 -12 -9 -20 5 -21 4 -6 -6 10 -6 21 -11 25 -12 11 -1 38 -41 35 -51
-1 -5 2 -6 7 -3 13 9 170 -201 231 -309 17 -31 19 -40 8 -47 -10 -8 -9 -9 4
-4 13 4 26 -11 54 -62 20 -37 37 -77 38 -89 0 -11 4 -20 7 -18 7 5 61 -106 55
-112 -3 -3 1 -11 9 -19 22 -22 74 -170 68 -196 -3 -15 -2 -19 4 -10 13 18 78
-191 77 -248 -1 -27 2 -37 6 -26 4 13 14 -17 29 -88 19 -90 21 -110 10 -117
-11 -7 -11 -9 2 -9 21 0 38 -136 34 -280 -2 -95 -2 -98 4 -30 l7 75 4 -92 c6
-150 6 -158 -7 -156 -7 2 -11 -10 -10 -32 2 -42 14 -46 21 -7 2 15 3 -27 0
-93 -2 -66 -4 -139 -4 -163 0 -24 -3 -41 -7 -39 -5 3 -9 -29 -9 -72 -2 -126
-43 -335 -115 -583 -18 -60 -35 -108 -38 -108 -4 0 -7 -8 -8 -18 -3 -32 -74
-203 -141 -337 -103 -208 -182 -337 -304 -502 -76 -101 -98 -146 -98 -195 0
-25 -3 -29 -10 -18 -5 8 -10 11 -10 6 0 -5 7 -16 15 -25 9 -9 26 -32 38 -51
48 -74 137 -101 222 -66 18 8 36 11 40 8 4 -4 5 -2 3 3 -1 6 24 46 57 90 34
44 80 110 104 147 24 38 48 65 54 61 5 -3 7 -1 3 5 -3 6 8 33 26 62 23 37 34
47 41 38 6 -9 7 -8 3 5 -3 9 4 34 16 55 12 20 52 95 88 165 36 70 70 124 75
120 4 -4 5 -3 2 4 -8 12 76 217 85 208 3 -3 6 4 6 17 0 13 18 75 39 138 22 63
48 145 58 182 10 40 22 65 28 61 6 -3 7 -1 3 6 -4 6 2 53 13 104 37 167 71
409 71 510 0 26 3 47 8 47 4 0 4 120 0 267 -6 254 -16 368 -53 597 -9 54 -14
105 -11 113 3 8 2 12 -2 9 -10 -6 -35 92 -27 104 3 5 2 10 -3 12 -14 6 -64
192 -53 196 6 2 11 8 11 13 0 4 -6 6 -14 3 -17 -6 -52 88 -40 108 4 7 4 10 -1
6 -5 -5 -37 58 -72 140 -35 81 -67 153 -70 161 -5 10 -2 12 7 6 9 -5 11 -4 6
4 -4 6 -11 9 -15 7 -10 -7 -63 103 -55 115 3 5 1 8 -5 7 -15 -4 -112 160 -98
166 7 3 6 5 -3 5 -19 2 -63 68 -54 83 4 7 3 8 -4 4 -13 -8 -35 28 -24 39 4 5
1 4 -7 0 -11 -6 -13 -4 -8 9 4 9 3 15 -2 12 -4 -3 -36 32 -69 77 -69 93 -127
152 -160 162 -13 4 -20 11 -16 18 5 8 2 8 -7 0 -16 -15 -33 -17 -24 -3 7 11 2
14 -8 4z"/>
<path d="M2366 5801 c-17 -11 -34 -18 -38 -15 -5 3 -7 1 -6 -4 4 -12 -60 -102
-73 -102 -5 0 -9 -5 -9 -10 0 -22 -62 -95 -78 -92 -12 2 -13 0 -5 -6 16 -10
-10 -52 -33 -52 -8 0 -14 -5 -14 -11 0 -5 5 -7 10 -4 6 3 -8 -23 -31 -59 -23
-37 -46 -63 -52 -59 -6 3 -7 1 -3 -5 4 -6 -13 -46 -38 -89 -24 -43 -66 -122
-92 -175 -27 -54 -51 -93 -55 -87 -3 6 -6 -2 -6 -18 0 -39 -57 -174 -61 -145
-2 12 -7 22 -12 22 -6 0 -6 -10 0 -25 7 -19 0 -53 -32 -152 -23 -70 -44 -130
-48 -133 -3 -3 -7 -14 -7 -25 -1 -11 -15 -81 -32 -155 -35 -156 -55 -280 -72
-435 -13 -123 -19 -695 -7 -695 5 0 8 -17 8 -37 0 -60 27 -237 57 -371 22
-105 24 -125 12 -134 -11 -8 -11 -9 3 -5 13 5 19 -5 28 -43 6 -27 8 -55 4 -62
-4 -7 -3 -10 1 -5 11 10 36 -63 29 -85 -3 -10 0 -18 6 -18 7 0 9 -7 6 -16 -3
-8 -2 -13 2 -10 12 7 45 -101 36 -116 -4 -6 -3 -8 3 -5 6 4 20 -17 32 -49 25
-65 25 -67 9 -59 -7 4 -6 1 3 -7 25 -21 38 -53 33 -79 -4 -20 -3 -21 4 -5 8
18 9 18 15 2 10 -26 8 -38 -5 -30 -7 4 -8 3 -4 -5 4 -6 11 -9 15 -7 4 3 24
-29 45 -71 29 -59 34 -78 24 -84 -7 -5 -9 -9 -4 -9 6 0 5 -5 -2 -12 -15 -15
-16 -28 -2 -28 5 0 9 5 7 12 -1 6 5 13 13 15 10 2 28 -21 53 -67 20 -38 33
-70 27 -70 -6 0 -8 -5 -5 -10 4 -6 10 -8 15 -5 9 6 46 -54 42 -67 -1 -5 4 -8
11 -8 8 0 7 -4 -3 -10 -13 -8 -13 -10 1 -10 9 0 33 -25 53 -56 32 -47 35 -58
24 -72 -8 -9 -8 -13 -1 -9 6 4 13 4 16 0 2 -5 2 -2 0 6 -3 11 -1 11 11 2 8 -7
13 -18 10 -26 -3 -7 0 -16 7 -21 8 -5 10 -3 5 7 -4 8 2 3 13 -10 12 -12 19
-27 16 -31 -3 -5 0 -12 6 -16 8 -5 10 -2 5 7 -4 8 0 5 8 -6 98 -122 124 -139
206 -133 64 5 121 36 139 76 6 13 15 21 19 18 4 -2 9 20 10 50 3 62 -14 109
-57 161 -17 20 -28 40 -25 45 3 5 1 7 -5 6 -14 -4 -82 92 -74 105 3 6 1 7 -4
4 -14 -8 -86 100 -77 115 4 6 3 8 -2 5 -13 -7 -75 96 -79 129 -1 14 -6 28 -10
32 -5 4 -5 -1 -2 -11 28 -77 -79 126 -123 233 -12 30 -27 65 -32 77 -6 11 -7
27 -3 34 5 7 4 10 -3 5 -7 -4 -29 48 -61 148 -64 193 -94 319 -87 359 5 25 4
27 -3 12 -5 -11 -10 -15 -10 -10 -1 6 -10 62 -21 125 -70 407 -56 869 40 1285
42 181 108 387 122 379 7 -5 8 -2 4 5 -10 16 13 73 27 64 6 -4 7 -1 3 6 -9 15
53 163 65 156 4 -3 11 0 15 6 4 8 3 9 -4 5 -17 -10 -15 -1 8 44 11 22 25 40
30 40 6 0 9 3 8 8 -6 16 25 71 36 65 6 -3 8 -2 4 2 -15 16 137 249 155 238 5
-3 7 -2 4 4 -7 12 41 85 52 79 4 -3 8 1 8 8 0 8 17 34 39 59 32 37 42 43 54
34 13 -10 13 -10 2 5 -11 14 -11 24 -2 53 8 23 9 50 4 73 -5 20 -8 43 -7 49 0
7 -3 10 -8 8 -10 -7 -31 30 -21 40 4 3 3 5 -3 3 -11 -3 -57 26 -51 33 2 2 -30
5 -72 7 -63 2 -82 -1 -106 -17z"/>
<path d="M2949 5353 c-1 -5 -1 -10 -1 -13 0 -3 -37 -5 -83 -4 -46 0 -82 -3
-79 -7 6 -11 -31 -30 -41 -21 -5 4 -5 2 -2 -4 7 -12 -16 -38 -25 -29 -2 3 -5
-2 -5 -9 0 -22 -124 -207 -134 -200 -5 3 -6 -2 -3 -10 4 -10 1 -16 -7 -16 -7
0 -9 -3 -6 -6 6 -7 -40 -94 -56 -105 -5 -3 -9 -10 -9 -15 0 -5 -21 -52 -46
-104 -25 -52 -46 -97 -47 -100 -25 -82 -29 -90 -38 -78 -6 10 -8 9 -4 -3 3 -9
-12 -71 -33 -137 -22 -67 -47 -155 -57 -197 -11 -48 -20 -70 -26 -62 -5 8 -6
4 -3 -9 4 -11 -3 -74 -13 -140 -29 -172 -29 -174 -30 -228 -1 -42 -3 -48 -20
-43 -14 3 -17 0 -13 -15 4 -15 7 -17 14 -6 5 8 8 -35 6 -109 -3 -113 -8 -143
-21 -110 -3 7 -6 5 -6 -5 -1 -10 6 -18 14 -18 12 0 15 -16 15 -87 0 -49 3
-112 6 -140 5 -34 3 -53 -4 -53 -5 0 -8 10 -6 23 4 20 4 21 -5 2 -7 -15 -5
-23 10 -34 13 -9 19 -24 18 -50 l-2 -36 -6 31 c-5 26 -9 30 -26 23 -17 -6 -17
-8 -2 -8 11 -1 17 -9 17 -26 0 -16 6 -25 15 -25 10 0 15 -10 15 -27 0 -21 -3
-24 -9 -13 -6 8 -7 18 -4 24 3 5 1 6 -5 2 -13 -8 1 -46 17 -46 12 0 25 -94 22
-163 -2 -64 7 -92 21 -61 7 17 8 16 4 -3 -2 -13 0 -23 5 -23 5 0 9 -6 9 -13 0
-7 16 -62 35 -121 19 -59 32 -112 29 -117 -7 -13 6 -50 15 -44 13 7 50 -91 44
-117 -3 -16 -2 -19 5 -10 7 11 10 10 16 -3 8 -22 8 -27 -3 -21 -5 3 -11 -1
-14 -8 -4 -10 0 -14 12 -11 13 2 25 -11 45 -51 15 -29 24 -59 20 -65 -4 -7 -3
-9 3 -6 13 8 86 -130 77 -144 -4 -7 -3 -9 3 -6 13 8 109 -140 105 -160 -2 -9
1 -12 7 -8 7 4 8 0 4 -11 -5 -13 -2 -16 8 -12 17 7 45 -29 40 -51 -1 -7 2 -10
7 -7 13 8 34 -18 24 -29 -4 -5 -2 -5 4 -2 6 3 30 -1 54 -9 67 -23 123 -10 175
40 73 70 80 153 20 232 -14 19 -23 39 -19 46 4 6 3 8 -3 5 -12 -7 -47 39 -39
51 3 4 0 14 -6 22 -8 12 -9 11 -4 -5 l6 -20 -16 20 c-75 96 -201 353 -259 529
-92 278 -125 479 -132 794 -3 137 -2 242 3 242 5 0 10 35 11 78 3 88 57 365
72 370 5 2 8 9 5 17 -3 7 4 44 16 83 17 57 25 70 38 65 13 -4 14 -2 4 5 -16
11 -6 58 14 66 8 3 14 11 14 18 0 9 -3 8 -10 -2 -5 -8 -10 -12 -10 -8 0 28
132 298 143 291 6 -3 7 -1 3 6 -8 12 73 153 84 146 4 -2 7 1 7 8 0 7 25 49 56
95 55 79 63 105 57 167 -3 32 -46 100 -73 114 -16 9 -24 20 -22 32 2 11 2 19
-1 19 -2 0 -5 -3 -5 -7z"/>
<path d="M7300 5318 c-64 -34 -87 -81 -93 -187 -2 -47 -1 -77 4 -70 5 8 6 23
3 34 -3 11 4 5 15 -13 12 -18 19 -37 16 -43 -4 -5 0 -9 7 -9 18 -1 71 -77 62
-92 -4 -7 -3 -8 4 -4 11 6 38 -31 34 -46 -1 -5 2 -8 8 -8 5 0 16 -13 25 -30
14 -27 14 -30 -3 -40 -15 -10 -14 -11 6 -7 19 5 27 -3 51 -51 27 -55 31 -89 9
-76 -7 4 -8 2 -4 -5 6 -8 11 -9 21 -1 9 8 19 -5 43 -57 16 -38 26 -71 21 -74
-13 -8 0 -39 16 -39 19 0 72 -151 59 -171 -5 -8 -3 -9 6 -4 10 6 12 3 8 -13
-4 -12 -3 -20 1 -17 11 6 64 -218 65 -275 1 -26 4 -46 7 -44 13 8 33 -235 33
-391 0 -162 -18 -361 -35 -381 -5 -6 -7 -18 -4 -27 13 -32 -80 -391 -98 -380
-6 3 -7 1 -3 -6 13 -21 -83 -268 -99 -253 -5 4 -5 2 -1 -5 10 -17 -62 -156
-76 -147 -7 4 -8 3 -4 -4 8 -14 0 -31 -71 -145 -30 -48 -58 -85 -62 -82 -4 2
-8 -1 -8 -8 0 -7 -12 -31 -28 -55 -22 -34 -28 -55 -30 -107 -1 -38 2 -60 6
-53 7 10 9 9 9 -4 0 -28 2 -32 19 -46 9 -8 10 -11 4 -7 -7 3 -13 1 -13 -5 0
-6 8 -10 18 -8 9 1 29 -6 44 -16 43 -28 98 -31 151 -8 33 14 47 17 51 9 2 -7
5 -4 5 7 1 10 14 35 30 55 15 20 45 62 66 93 21 32 42 55 48 51 6 -3 7 -1 3 5
-4 6 13 46 38 89 24 43 67 123 94 177 27 55 52 93 54 85 3 -8 4 -6 2 5 -4 27
26 97 39 89 6 -3 7 -1 3 5 -4 7 11 64 33 127 22 63 48 142 57 177 8 35 19 67
22 73 4 5 7 15 7 20 4 55 30 163 38 152 5 -7 6 -4 2 10 -3 13 1 71 9 130 23
170 27 230 27 410 0 210 -24 427 -66 611 -8 35 -12 74 -9 87 3 14 0 26 -8 32
-8 4 -26 50 -41 100 -16 51 -51 148 -79 215 -28 68 -51 133 -52 145 0 11 -4
19 -8 17 -6 -4 -23 37 -19 45 2 2 -2 7 -7 10 -19 12 -72 112 -66 123 4 7 2 8
-4 4 -7 -4 -12 -3 -12 2 0 5 -29 53 -65 106 -36 53 -65 101 -65 106 0 6 -4 10
-8 10 -9 0 -47 62 -44 73 1 4 -1 6 -5 5 -5 -1 -21 6 -36 17 -46 30 -123 31
-177 3z"/>
</g>
</svg>
