<?xml version="1.0" standalone="no"?>
<!DOCTYPE svg PUBLIC "-//W3C//DTD SVG 20010904//EN"
 "http://www.w3.org/TR/2001/REC-SVG-20010904/DTD/svg10.dtd">
<svg version="1.0" xmlns="http://www.w3.org/2000/svg"
 width="1024.000000pt" height="1024.000000pt" viewBox="0 0 1024.000000 1024.000000"
 preserveAspectRatio="xMidYMid meet">
<metadata>
Created by potrace 1.16, written by Peter Selinger 2001-2019
</metadata>
<g transform="translate(0.000000,1024.000000) scale(0.100000,-0.100000)"
fill="#000000" stroke="none">
<path d="M4195 8656 c-120 -29 -245 -127 -299 -235 -50 -98 -56 -139 -56 -388
l0 -233 1275 0 1275 0 0 233 c-1 247 -6 287 -47 376 -32 69 -139 177 -206 210
-107 52 -89 51 -1022 50 -648 -1 -883 -4 -920 -13z"/>
<path d="M3497 7675 c-58 -40 -72 -75 -72 -185 0 -82 3 -101 24 -137 16 -29
39 -50 66 -63 41 -20 62 -20 1605 -20 1561 0 1564 0 1606 21 69 33 87 73 88
188 1 112 -17 161 -73 198 l-34 23 -1586 0 -1586 0 -38 -25z"/>
<path d="M3840 6250 l0 -910 1275 0 1275 0 0 910 0 910 -1275 0 -1275 0 0
-910z m675 565 l25 -24 0 -545 0 -544 -31 -26 c-43 -36 -91 -35 -130 3 l-29
29 0 537 0 537 29 29 c39 39 100 41 136 4z m670 0 l25 -24 0 -541 0 -542 -29
-29 c-22 -21 -39 -29 -66 -29 -27 0 -44 8 -66 29 l-29 29 0 537 0 537 29 29
c39 39 100 41 136 4z m670 0 l25 -24 0 -546 0 -546 -26 -24 c-57 -53 -145 -21
-159 56 -3 19 -5 265 -3 547 l3 514 28 24 c39 33 99 33 132 -1z"/>
<path d="M3840 5022 c0 -223 8 -280 54 -370 52 -102 155 -190 274 -235 52 -19
84 -21 357 -26 l300 -6 5 -191 c7 -264 -1 -258 310 -252 213 3 240 10 260 64
6 14 10 106 10 205 l0 179 283 0 c162 0 309 5 342 11 128 23 238 106 296 222
48 94 59 167 59 400 l0 207 -1275 0 -1275 0 0 -208z"/>
<path d="M5097 3795 c-428 -593 -717 -1068 -772 -1270 -26 -96 -31 -277 -10
-371 62 -282 273 -503 575 -600 123 -39 291 -45 414 -14 161 40 283 107 400
219 169 162 246 361 233 598 -11 205 -70 337 -331 748 -126 198 -423 635 -463
682 l-28 33 -18 -25z"/>
</g>
</svg>
