<?xml version="1.0" standalone="no"?>
<!DOCTYPE svg PUBLIC "-//W3C//DTD SVG 20010904//EN"
 "http://www.w3.org/TR/2001/REC-SVG-20010904/DTD/svg10.dtd">
<svg version="1.0" xmlns="http://www.w3.org/2000/svg"
 width="1024.000000pt" height="1024.000000pt" viewBox="0 0 1024.000000 1024.000000"
 preserveAspectRatio="xMidYMid meet">
<metadata>
Created by potrace 1.16, written by Peter Selinger 2001-2019
</metadata>
<g transform="translate(0.000000,1024.000000) scale(0.100000,-0.100000)"
fill="#000000" stroke="none">
<path d="M3933 9319 c-23 -4 -54 -14 -70 -23 -15 -8 -158 -143 -316 -300 -163
-162 -293 -283 -299 -280 -6 4 -8 2 -5 -4 9 -13 -93 -113 -106 -105 -6 3 -7 1
-4 -4 8 -12 -139 -159 -154 -155 -6 1 -8 -1 -5 -6 6 -10 -277 -295 -287 -287
-4 3 -5 2 -2 -2 8 -10 -487 -503 -497 -497 -5 3 -7 1 -6 -5 4 -15 -644 -651
-656 -644 -6 3 -8 3 -4 -2 4 -4 -8 -26 -27 -48 -53 -62 -78 -121 -78 -186 0
-49 13 -229 40 -541 4 -47 8 -102 8 -122 0 -21 3 -38 8 -38 4 0 7 -8 7 -18 0
-26 50 -100 98 -146 23 -22 38 -44 35 -50 -3 -6 -2 -8 2 -3 5 4 151 -134 324
-306 295 -293 319 -315 365 -326 27 -7 63 -9 80 -5 37 8 92 42 125 77 13 15
29 24 35 20 6 -3 7 -2 3 2 -10 11 623 646 636 638 6 -3 7 -2 4 4 -8 13 1107
1126 1118 1116 4 -4 5 -3 2 3 -8 14 56 77 68 67 4 -5 5 -3 2 3 -8 14 126 147
138 137 4 -4 5 -3 2 3 -8 14 66 87 78 77 4 -5 5 -3 2 3 -4 7 182 198 454 465
253 250 469 471 479 491 21 40 26 92 11 130 -5 13 -43 58 -84 100 -41 42 -72
79 -69 82 3 4 -1 6 -8 6 -20 0 -450 432 -443 444 4 6 3 8 -2 4 -4 -4 -33 18
-64 49 -77 76 -131 99 -270 114 -77 9 -108 15 -95 21 12 5 1 6 -29 3 -26 -2
-82 0 -125 5 -42 6 -90 12 -107 15 -16 2 -75 9 -130 15 -55 6 -109 12 -120 13
-11 2 -39 0 -62 -4z"/>
<path d="M4814 7271 c8 -12 -19 -33 -29 -23 -5 4 -5 2 -2 -4 7 -11 -30 -52
-48 -53 -5 -1 -10 -7 -10 -13 -1 -7 -6 -12 -13 -10 -7 1 -11 -4 -9 -10 1 -7
-5 -11 -13 -10 -8 2 -12 0 -8 -4 11 -10 -12 -35 -26 -27 -6 3 -8 2 -3 -2 10
-11 -33 -56 -46 -48 -6 3 -7 2 -4 -4 8 -13 -67 -86 -78 -76 -4 5 -5 3 -1 -4 7
-12 -99 -134 -114 -130 -4 1 -9 -2 -9 -8 -2 -18 -134 -144 -144 -138 -6 3 -7
2 -4 -4 9 -14 -32 -55 -45 -47 -7 4 -8 2 -4 -4 8 -14 -104 -133 -117 -125 -6
3 -7 2 -4 -4 7 -11 -62 -80 -76 -75 -5 1 -6 -1 -3 -6 7 -12 -148 -164 -159
-155 -4 4 -5 2 -1 -4 8 -15 -182 -215 -196 -207 -5 3 -7 1 -6 -4 2 -6 -16 -30
-39 -54 -39 -42 -48 -67 -28 -85 4 -4 5 -2 1 5 -22 38 33 -11 251 -226 l241
-237 62 92 c35 51 66 90 71 88 4 -3 11 0 15 6 4 8 3 9 -4 5 -19 -11 -14 5 11
38 25 33 182 264 467 686 94 140 175 254 179 253 4 -1 8 5 8 12 0 23 147 234
158 228 5 -4 7 -3 3 2 -4 4 9 32 28 63 l35 55 -35 36 c-20 21 -33 41 -29 46 5
4 3 5 -4 2 -14 -9 -175 162 -166 176 3 6 1 7 -5 3 -6 -3 -13 -2 -17 4 -3 5
-13 10 -21 10 -8 0 -13 -4 -10 -9z"/>
<path d="M5250 6790 c10 -6 7 -17 -10 -45 -17 -28 -25 -34 -32 -23 -8 10 -9 9
-4 -4 6 -20 -137 -234 -154 -230 -6 1 -8 -2 -5 -9 9 -14 -64 -121 -78 -112 -6
3 -7 1 -3 -5 10 -17 -105 -186 -117 -170 -6 9 -7 8 -3 -5 6 -18 -26 -72 -36
-62 -3 3 -5 -1 -5 -8 0 -14 -140 -227 -149 -227 -4 0 0 8 7 18 13 15 12 16 -3
3 -10 -7 -15 -18 -12 -23 4 -5 -29 -61 -72 -124 -55 -81 -80 -110 -87 -102 -6
9 -7 7 -3 -5 7 -21 -131 -230 -145 -221 -5 3 -6 -3 -2 -12 4 -10 2 -15 -4 -11
-5 3 -10 1 -10 -6 0 -7 -17 -36 -38 -65 l-38 -53 89 -82 c48 -45 126 -119 173
-164 80 -76 86 -80 99 -62 7 11 18 16 24 13 7 -4 8 -2 4 4 -6 10 677 1040 708
1067 6 6 12 17 14 25 5 23 23 40 35 33 6 -3 7 -1 3 6 -5 7 35 76 99 173 59 88
109 166 111 173 3 7 -27 43 -65 80 -39 37 -68 72 -64 78 3 6 2 7 -3 4 -6 -3
-49 32 -97 77 -63 61 -94 84 -113 84 -17 0 -22 -3 -14 -8z"/>
<path d="M5784 6292 c9 -16 -141 -245 -155 -237 -5 3 -6 -2 -2 -11 5 -13 3
-15 -7 -9 -8 5 -11 4 -6 -3 8 -13 -71 -128 -86 -124 -5 1 -7 -2 -3 -8 8 -12
-133 -220 -147 -217 -6 1 -13 -5 -15 -13 -4 -13 -3 -13 6 0 17 24 13 2 -5 -25
-9 -14 -20 -23 -24 -20 -5 3 -12 0 -16 -6 -4 -8 -3 -9 4 -5 7 4 12 5 12 2 0
-14 -103 -155 -110 -151 -4 3 -7 -3 -6 -13 0 -9 -5 -16 -12 -14 -8 1 -11 -2
-7 -7 3 -6 -17 -44 -45 -85 -38 -56 -55 -74 -68 -70 -13 5 -14 4 -4 -4 11 -7
5 -22 -28 -70 -24 -34 -47 -59 -53 -55 -6 3 -7 1 -3 -5 4 -6 -1 -23 -10 -37
-13 -20 -19 -23 -26 -13 -7 9 -8 7 -4 -7 5 -20 -65 -131 -76 -120 -2 3 -5 -1
-5 -8 0 -14 -60 -107 -69 -107 -3 0 -2 5 1 10 3 6 1 10 -5 10 -7 0 -9 -8 -5
-19 4 -13 -4 -29 -25 -50 -18 -18 -26 -31 -18 -31 17 0 104 -80 100 -92 -1 -5
2 -7 7 -4 12 8 33 -18 23 -29 -4 -5 -2 -5 4 -2 6 3 56 -36 111 -88 56 -52 105
-95 110 -95 5 0 35 38 67 85 32 47 62 83 66 80 5 -3 12 0 16 6 4 8 3 9 -4 5
-7 -4 -12 -4 -12 0 0 18 254 383 263 377 6 -3 7 -1 3 5 -8 13 203 334 214 327
5 -3 12 0 16 6 5 8 3 9 -6 4 -24 -15 -5 18 105 182 59 87 112 157 117 155 5
-1 7 2 3 7 -3 6 33 68 80 138 l85 128 -58 58 c-80 82 -297 285 -288 269z"/>
<path d="M6252 5688 c-67 -98 -246 -362 -457 -676 -58 -85 -101 -140 -107
-136 -6 4 -8 2 -4 -4 8 -13 -101 -178 -115 -174 -6 1 -8 -2 -4 -7 3 -6 -2 -22
-11 -36 -13 -20 -19 -23 -25 -13 -6 9 -8 7 -7 -7 2 -27 -139 -235 -160 -236
-10 0 -12 -3 -5 -6 9 -3 9 -11 -3 -29 -9 -13 -20 -21 -25 -18 -5 3 -7 -1 -4
-8 3 -7 -4 -24 -15 -38 -11 -14 -20 -20 -20 -13 0 6 5 15 10 18 6 3 10 11 10
18 0 6 -8 1 -17 -12 -17 -24 -16 -25 133 -167 82 -79 148 -148 146 -154 -1 -6
2 -9 7 -6 5 4 16 -1 24 -9 9 -8 19 -15 24 -15 5 0 32 36 62 80 30 45 58 77 64
73 6 -3 7 -1 3 5 -8 13 601 928 615 924 6 -1 8 2 4 7 -8 14 76 141 88 134 6
-3 7 -2 4 4 -4 6 34 72 83 147 50 75 90 140 90 144 0 4 -22 29 -50 56 -27 27
-47 53 -43 59 3 6 1 7 -5 3 -15 -9 -154 123 -145 138 3 6 2 8 -2 3 -5 -4 -23
7 -41 24 l-32 31 -70 -104z"/>
<path d="M6815 5273 c-8 -8 -15 -19 -15 -24 0 -6 -5 -7 -12 -3 -7 4 -8 3 -4
-4 7 -12 -284 -453 -294 -447 -4 2 -7 -2 -7 -8 0 -21 -144 -228 -154 -222 -5
4 -7 0 -4 -7 5 -14 -340 -523 -354 -523 -5 0 -13 -4 -18 -9 -5 -5 -3 -6 5 -2
18 11 14 -6 -9 -34 -15 -17 -19 -19 -15 -7 4 11 2 16 -5 12 -6 -4 -8 -14 -5
-22 3 -8 -22 -55 -60 -109 -74 -108 -75 -94 13 -177 29 -27 50 -54 46 -60 -3
-5 -1 -7 4 -4 13 8 46 -27 36 -37 -5 -4 -3 -6 3 -4 16 5 86 -61 78 -74 -4 -6
-3 -8 3 -5 6 4 25 -6 44 -22 l33 -29 106 157 c59 86 198 291 309 456 112 165
207 299 213 297 5 -1 7 2 3 7 -6 11 158 264 167 256 2 -3 5 1 5 8 0 12 113
186 186 285 l39 54 -26 27 c-15 15 -24 30 -21 34 3 4 2 5 -2 2 -10 -8 -123
106 -117 117 3 5 1 7 -4 6 -5 -2 -41 27 -81 63 -63 59 -73 65 -86 52z"/>
<path d="M7288 4714 c-17 -28 -32 -42 -40 -38 -7 4 -8 3 -4 -4 9 -15 -23 -64
-37 -55 -6 3 -7 1 -3 -5 4 -6 -25 -58 -65 -114 -39 -57 -122 -178 -186 -271
-68 -99 -119 -165 -125 -161 -7 4 -8 2 -4 -5 9 -13 -81 -144 -94 -136 -4 2 -7
-3 -6 -13 0 -9 -4 -16 -11 -15 -7 2 -10 -3 -8 -10 5 -13 -260 -402 -274 -402
-5 0 -13 -4 -18 -9 -5 -5 -3 -6 5 -2 6 4 12 5 12 2 0 -11 -82 -121 -90 -121
-4 0 -12 -4 -17 -9 -5 -5 -3 -6 5 -2 18 11 15 1 -17 -46 l-29 -42 119 -114
c70 -67 116 -119 112 -125 -3 -7 -3 -9 2 -5 4 4 28 -11 53 -32 25 -22 46 -39
48 -38 4 4 278 407 374 549 47 70 88 125 91 123 3 -2 6 3 6 10 0 20 63 107 74
101 5 -3 6 0 4 8 -3 7 7 31 23 53 68 94 442 653 442 661 0 8 -305 313 -312
313 -2 0 -15 -21 -30 -46z"/>
<path d="M2631 4620 c-1 -12 -19 -16 -82 -18 -56 -2 -79 0 -74 7 3 6 2 11 -4
11 -5 0 -13 -4 -16 -10 -3 -5 -54 -9 -115 -9 -122 0 -171 -10 -224 -46 -21
-14 -43 -22 -49 -19 -7 4 -9 4 -5 -1 4 -4 -8 -29 -26 -54 -18 -25 -48 -72 -66
-103 -17 -32 -36 -58 -41 -58 -5 0 -8 -3 -7 -7 2 -5 -11 -31 -27 -59 -20 -36
-34 -50 -44 -47 -12 4 -13 3 -3 -4 10 -8 -11 -49 -88 -179 -55 -93 -105 -168
-111 -166 -6 1 -7 -2 -4 -8 9 -14 -156 -291 -168 -283 -6 3 -7 1 -3 -5 4 -7
-60 -125 -145 -269 -171 -290 -192 -339 -187 -454 2 -43 7 -74 12 -71 5 3 6
-8 3 -24 -3 -16 -4 -23 0 -16 3 9 19 -10 39 -48 19 -33 31 -67 28 -73 -4 -7
-4 -9 1 -5 11 10 15 5 168 -263 74 -129 183 -317 242 -419 164 -283 167 -289
159 -301 -4 -7 -3 -9 4 -6 10 7 75 -97 75 -120 0 -7 4 -13 8 -13 4 0 31 -42
60 -92 69 -120 123 -178 202 -214 l62 -29 865 -3 c909 -3 931 -2 1015 41 22
12 44 20 50 18 5 -1 7 0 4 3 -3 4 9 23 28 44 19 20 50 65 70 100 20 36 39 59
45 55 7 -3 8 -1 4 5 -9 15 324 583 337 575 6 -3 7 -1 3 6 -4 7 60 126 152 284
304 518 294 499 294 595 -1 71 -16 113 -81 225 -28 49 -48 94 -45 99 4 6 3 8
-3 5 -8 -5 -62 83 -274 448 -25 44 -101 174 -168 288 -67 114 -119 213 -115
219 4 6 3 8 -4 5 -13 -9 -86 119 -76 135 4 6 3 8 -4 4 -14 -8 -76 100 -66 115
4 8 3 9 -4 5 -6 -4 -17 6 -26 22 -24 47 -112 119 -172 142 -50 18 -79 20 -289
21 -131 1 -232 5 -229 10 3 5 0 9 -5 9 -6 0 -11 -5 -11 -11 0 -13 -42 -8 -52
6 -5 7 -13 6 -25 -1 -10 -6 -51 -11 -92 -11 -45 0 -68 3 -60 8 9 6 10 9 2 9
-6 0 -14 -4 -17 -8 -3 -5 -44 -9 -91 -10 -56 -1 -84 1 -80 8 4 7 -2 7 -18 1
-16 -6 -28 -6 -36 2 -8 8 -11 8 -11 0 0 -6 -16 -11 -35 -11 -19 0 -32 4 -29 9
3 5 0 9 -5 9 -6 0 -11 -4 -11 -9 0 -4 -67 -9 -149 -9 -132 -1 -150 1 -154 16
-4 13 -5 13 -6 2z m678 -745 c88 -18 223 -71 299 -117 75 -46 168 -123 164
-137 -1 -7 2 -10 7 -7 21 13 188 -195 174 -217 -3 -6 -2 -7 4 -4 12 8 56 -81
47 -95 -4 -6 -2 -8 4 -5 14 9 67 -130 89 -236 21 -101 23 -303 4 -402 -26
-132 -109 -334 -132 -320 -5 4 -6 0 -3 -8 5 -15 -60 -107 -122 -172 -148 -155
-317 -250 -527 -297 -118 -26 -318 -28 -427 -5 -114 25 -180 48 -173 60 4 6 0
8 -10 4 -30 -11 -243 115 -230 136 3 6 1 7 -5 3 -17 -10 -114 84 -185 179
-287 383 -268 935 44 1304 31 36 63 64 70 63 8 -2 11 0 7 4 -11 10 12 35 25
27 5 -3 7 -1 4 4 -8 12 71 75 153 123 74 43 198 93 216 86 8 -3 13 -2 10 3 -6
9 50 25 144 40 78 12 262 5 349 -14z"/>
<path d="M7798 4229 c-11 -18 -22 -27 -29 -23 -8 4 -9 3 -5 -4 4 -7 -47 -90
-116 -189 -68 -98 -151 -218 -185 -268 -34 -49 -66 -89 -72 -88 -6 2 -8 -3 -6
-10 6 -15 -112 -183 -126 -179 -6 1 -8 -2 -4 -8 9 -14 -114 -192 -127 -184 -7
4 -8 2 -4 -4 8 -14 -138 -228 -154 -224 -6 1 -9 -2 -5 -7 8 -13 -24 -63 -36
-55 -5 3 -7 -1 -4 -8 3 -7 -5 -24 -16 -38 -20 -24 -21 -25 -16 -2 3 13 1 20
-5 16 -5 -3 -7 -15 -4 -27 5 -21 -79 -151 -93 -142 -4 2 -7 -5 -6 -15 1 -11
73 -89 164 -178 125 -120 166 -155 176 -147 8 5 40 49 73 97 33 48 61 85 64
83 3 -3 5 1 5 8 0 19 54 97 64 92 4 -3 11 0 15 6 4 8 3 9 -4 5 -7 -4 -12 -5
-12 -2 0 16 212 321 221 318 6 -1 8 2 4 7 -8 14 25 62 38 54 5 -3 7 -2 4 4 -8
13 31 75 43 68 5 -3 7 0 5 7 -3 8 105 178 240 378 184 273 244 370 240 385 -4
11 -7 25 -7 32 -1 7 -4 10 -8 8 -10 -6 -210 185 -207 198 1 7 -3 11 -9 10 -6
-1 -24 11 -39 27 -16 17 -31 30 -34 30 -3 0 -14 -14 -23 -31z"/>
<path d="M8290 3718 c-21 -34 -34 -47 -40 -39 -5 10 -9 9 -13 -4 -5 -10 -3
-14 4 -9 7 4 10 1 7 -7 -3 -8 -10 -13 -16 -12 -5 1 -9 -5 -8 -15 0 -9 -5 -16
-12 -14 -8 1 -11 -2 -7 -7 7 -12 -305 -472 -315 -466 -4 3 -7 -3 -6 -13 0 -9
-4 -16 -11 -15 -6 1 -17 -5 -25 -15 -12 -15 -11 -16 5 -3 9 7 17 11 17 7 0
-13 -152 -226 -162 -226 -6 0 -8 -3 -5 -6 4 -4 -51 -90 -120 -193 -70 -102
-144 -212 -165 -244 -23 -34 -44 -55 -50 -51 -7 4 -8 2 -4 -5 4 -6 -8 -33 -29
-63 l-37 -51 66 -66 c37 -37 63 -71 59 -75 -4 -4 -3 -6 3 -4 11 3 119 -81 123
-97 1 -5 5 -12 8 -15 4 -3 3 0 0 6 -4 7 14 10 51 10 57 0 114 6 108 11 -6 6
206 208 216 205 5 -1 7 2 4 7 -3 5 8 21 25 35 17 14 28 26 24 26 -3 0 34 41
82 90 48 50 93 88 100 86 7 -3 15 0 19 6 4 7 3 8 -4 4 -25 -15 -11 12 21 41
17 16 119 120 226 231 107 111 199 198 204 195 6 -3 7 -2 4 4 -8 13 67 86 78
76 4 -5 6 -3 2 2 -3 6 10 27 28 48 63 71 71 154 20 226 -14 21 -90 101 -168
177 -78 77 -140 143 -139 147 1 5 -2 6 -7 3 -5 -3 -36 23 -69 59 l-61 64 -31
-51z"/>
</g>
</svg>
