<?xml version="1.0" standalone="no"?>
<!DOCTYPE svg PUBLIC "-//W3C//DTD SVG 20010904//EN"
 "http://www.w3.org/TR/2001/REC-SVG-20010904/DTD/svg10.dtd">
<svg version="1.0" xmlns="http://www.w3.org/2000/svg"
 width="1024.000000pt" height="1024.000000pt" viewBox="0 0 1024.000000 1024.000000"
 preserveAspectRatio="xMidYMid meet">
<metadata>
Created by potrace 1.16, written by Peter Selinger 2001-2019
</metadata>
<g transform="translate(0.000000,1024.000000) scale(0.100000,-0.100000)"
fill="#000000" stroke="none">
<path d="M5788 8720 c-49 -26 -56 -37 -199 -313 -89 -171 -129 -239 -144 -243
-11 -3 -60 0 -110 5 -117 14 -230 14 -280 0 -53 -15 -122 -85 -131 -135 -8
-45 9 -104 42 -144 36 -42 100 -57 270 -64 78 -3 185 -13 239 -21 74 -12 105
-13 130 -5 68 22 134 117 272 390 41 79 81 148 89 153 10 6 53 -5 127 -32 62
-23 117 -45 123 -49 9 -5 7 -36 -7 -117 -33 -195 -61 -438 -54 -481 8 -58 39
-83 200 -163 244 -120 409 -242 621 -458 144 -146 168 -161 238 -142 66 17
292 116 404 176 57 30 109 52 117 50 13 -6 175 -223 175 -237 0 -3 -54 -56
-121 -116 -159 -142 -257 -249 -282 -303 -30 -68 -20 -143 35 -271 83 -191
137 -392 184 -683 20 -129 46 -173 124 -212 63 -32 247 -85 402 -116 135 -27
128 -17 128 -173 0 -132 0 -131 -78 -144 -200 -32 -431 -74 -462 -84 -78 -24
-110 -79 -144 -245 -42 -204 -143 -464 -250 -643 -71 -118 -92 -186 -76 -236
16 -46 99 -149 251 -307 l122 -129 -18 -31 c-10 -18 -49 -74 -87 -125 -66 -90
-70 -93 -91 -79 -53 34 -359 197 -424 226 -115 50 -123 48 -267 -81 -140 -124
-411 -296 -666 -422 -152 -76 -155 -84 -155 -444 0 -265 -1 -273 -20 -277 -11
-3 -63 -13 -115 -24 -52 -11 -102 -22 -110 -25 -12 -5 -33 34 -94 178 -101
238 -142 307 -204 343 l-47 28 -290 -3 c-392 -4 -534 15 -883 119 -91 27 -181
49 -202 49 -68 0 -137 -65 -147 -138 -8 -61 4 -108 40 -149 40 -46 57 -52 268
-107 336 -87 604 -126 870 -126 l178 0 28 -34 c15 -19 55 -97 87 -173 118
-275 142 -312 217 -344 36 -15 96 -7 420 57 217 42 269 57 297 86 48 52 52 81
59 391 l6 292 90 50 c116 64 393 247 475 313 106 86 108 86 378 -63 216 -119
228 -125 269 -125 53 0 98 23 152 77 48 49 257 323 346 455 80 120 67 161
-113 353 -177 188 -230 250 -230 269 0 10 25 59 55 109 71 119 126 254 171
414 43 155 51 177 72 197 11 9 100 28 232 50 238 40 303 57 351 89 78 53 88
101 89 434 0 252 -8 301 -59 355 -34 36 -51 44 -276 114 -132 42 -258 85 -280
97 l-40 22 -51 195 c-58 225 -111 394 -149 473 l-26 56 207 203 c113 112 215
220 225 240 25 49 24 118 -2 169 -57 113 -318 485 -366 524 -34 27 -45 30
-108 30 -68 0 -77 -3 -314 -112 -209 -97 -247 -111 -260 -100 -9 8 -61 53
-116 102 -187 165 -389 311 -532 385 -35 18 -63 34 -63 35 0 2 21 124 46 272
53 311 53 334 -6 393 -55 55 -133 88 -407 174 -258 81 -303 88 -365 56z"/>
<path d="M4135 8696 c-16 -7 -39 -24 -51 -37 -12 -13 -77 -134 -146 -269 -69
-135 -188 -364 -265 -510 -77 -146 -174 -332 -215 -415 -41 -82 -127 -234
-191 -338 -105 -170 -173 -275 -435 -675 -118 -181 -205 -333 -267 -467 -29
-63 -57 -121 -63 -128 -27 -34 -136 -343 -172 -485 -53 -210 -67 -504 -35
-731 62 -443 273 -856 590 -1159 323 -308 697 -495 1085 -542 201 -24 483 -7
670 40 435 110 827 376 1092 741 237 325 360 632 399 994 38 353 -57 785 -270
1230 -54 113 -283 499 -404 679 -173 259 -446 744 -902 1601 -114 215 -218
405 -232 423 -44 59 -120 78 -188 48z m-432 -1954 c46 -72 48 -116 10 -181
-14 -25 -95 -156 -178 -291 -202 -326 -259 -427 -369 -648 -143 -291 -174
-401 -183 -652 -12 -339 53 -568 226 -795 69 -91 206 -229 303 -307 91 -73 98
-82 98 -129 0 -43 -17 -69 -55 -85 -59 -24 -97 -18 -164 27 -84 56 -253 225
-334 334 -82 109 -197 338 -231 457 -71 250 -75 603 -10 847 81 300 270 663
639 1226 128 194 174 255 194 255 9 0 33 -26 54 -58z"/>
<path d="M5437 7209 c-39 -30 -52 -88 -33 -152 19 -64 58 -122 94 -141 15 -7
63 -24 107 -36 636 -177 1103 -697 1252 -1395 26 -123 28 -144 27 -380 0 -223
-2 -261 -22 -355 -84 -388 -262 -707 -542 -973 -131 -124 -276 -222 -468 -315
-153 -73 -159 -77 -265 -181 -122 -119 -142 -148 -133 -199 8 -53 41 -82 91
-82 93 0 342 85 505 172 244 131 390 239 565 419 194 200 314 365 415 574 157
324 228 659 217 1015 -13 411 -119 765 -331 1107 -166 269 -395 505 -651 673
-177 116 -449 224 -638 255 -124 20 -159 19 -190 -6z"/>
</g>
</svg>
