<?xml version="1.0" standalone="no"?>
<!DOCTYPE svg PUBLIC "-//W3C//DTD SVG 20010904//EN"
 "http://www.w3.org/TR/2001/REC-SVG-20010904/DTD/svg10.dtd">
<svg version="1.0" xmlns="http://www.w3.org/2000/svg"
 width="1024.000000pt" height="1024.000000pt" viewBox="0 0 1024.000000 1024.000000"
 preserveAspectRatio="xMidYMid meet">
<metadata>
Created by potrace 1.16, written by Peter Selinger 2001-2019
</metadata>
<g transform="translate(0.000000,1024.000000) scale(0.100000,-0.100000)"
fill="#000000" stroke="none">
<path d="M3910 8438 c-174 -8 -190 -10 -184 -19 6 -11 -24 -31 -36 -24 -6 4
-9 3 -8 -2 1 -4 -10 -28 -24 -53 -38 -64 -53 -140 -39 -196 6 -25 9 -49 6 -55
-4 -5 -3 -8 2 -7 14 4 74 -68 65 -78 -4 -5 -3 -6 2 -2 5 4 25 -2 45 -14 35
-22 36 -22 573 -23 296 0 538 -3 538 -7 0 -4 7 -5 15 -1 14 5 16 -35 15 -355
-1 -347 -2 -361 -21 -367 -10 -4 -23 -3 -29 0 -5 3 -10 1 -10 -6 0 -8 -5 -7
-17 2 -9 8 -14 10 -11 4 4 -7 -59 -10 -181 -11 -215 -1 -237 -7 -280 -85 -23
-41 -24 -52 -28 -293 -3 -174 -8 -255 -16 -265 -9 -12 -9 -13 1 -7 6 4 12 3
12 -2 0 -14 -30 -23 -54 -17 -15 5 -17 4 -8 -3 11 -7 10 -10 -3 -16 -9 -3 -22
-3 -27 1 -6 3 -8 2 -5 -4 8 -12 -61 -46 -75 -37 -7 4 -8 2 -4 -4 3 -6 -2 -16
-13 -21 -26 -14 -34 -14 -25 1 5 7 3 8 -5 4 -7 -5 -10 -10 -7 -13 7 -7 -204
-146 -221 -146 -7 0 -10 -4 -8 -7 7 -11 -86 -80 -98 -73 -5 3 -7 1 -4 -4 8
-13 -107 -115 -118 -105 -5 4 -5 2 -2 -4 8 -14 -66 -87 -78 -77 -4 5 -5 2 -1
-5 10 -16 -22 -54 -37 -45 -5 3 -7 1 -3 -5 3 -6 -10 -27 -29 -48 -19 -20 -35
-39 -35 -41 0 -12 -53 -72 -60 -68 -5 3 -12 0 -16 -6 -4 -8 -3 -9 4 -5 19 12
14 -1 -24 -59 -20 -30 -41 -52 -47 -48 -5 3 -7 2 -4 -4 3 -5 -23 -63 -58 -129
-36 -65 -70 -134 -76 -152 -6 -18 -14 -30 -19 -27 -5 3 -12 0 -16 -6 -5 -8 -3
-9 6 -4 10 6 12 4 6 -11 -4 -10 -17 -47 -28 -81 -12 -35 -25 -63 -30 -63 -5 0
-7 -4 -3 -9 10 -18 -56 -20 -444 -18 l-383 2 -5 95 c-3 52 -6 103 -6 112 -1 9
-4 15 -8 12 -4 -2 -9 3 -13 11 -3 8 -20 24 -38 35 -31 19 -50 20 -298 20 -292
0 -298 -1 -341 -66 -18 -28 -19 -62 -19 -907 l0 -878 38 -35 c48 -45 62 -48
220 -48 82 0 132 -4 132 -11 0 -7 3 -7 8 0 4 6 55 11 114 11 91 2 112 5 143
24 59 37 70 68 70 207 l0 123 418 0 c325 0 418 -3 421 -12 2 -7 21 -60 42
-118 20 -58 37 -111 37 -117 0 -7 3 -13 7 -13 4 0 17 -23 31 -52 17 -37 21
-52 11 -56 -17 -5 -15 -32 4 -32 9 0 12 5 8 12 -4 7 -3 8 5 4 17 -11 63 -105
56 -116 -3 -5 0 -12 6 -16 8 -4 9 -3 5 4 -4 7 -5 12 -3 12 3 0 24 -30 46 -67
33 -52 39 -68 29 -75 -10 -7 -8 -8 4 -4 20 6 37 -19 33 -47 -2 -9 1 -15 6 -11
5 3 7 10 4 15 -4 5 -4 9 -1 9 11 0 65 -84 59 -93 -3 -6 -1 -7 5 -3 13 8 54
-43 45 -57 -3 -5 -1 -7 4 -4 18 11 82 -68 79 -96 -2 -18 1 -24 11 -20 11 4 11
9 1 22 -12 15 9 -2 77 -64 17 -15 29 -32 27 -39 -2 -6 0 -8 4 -4 11 12 84 -51
77 -67 -3 -8 0 -15 7 -15 6 0 8 4 5 10 -13 21 13 9 36 -17 13 -15 16 -21 7
-14 -12 9 -18 10 -18 2 0 -6 6 -12 13 -12 27 -3 33 -5 55 -17 12 -7 19 -18 16
-24 -4 -7 -3 -8 4 -4 7 4 29 -5 49 -20 44 -32 65 -51 44 -39 -10 5 -12 4 -7
-4 4 -6 12 -8 18 -5 14 9 59 -17 51 -30 -3 -6 -3 -8 2 -4 8 7 146 -58 156 -74
3 -5 10 -9 15 -9 18 2 103 -33 98 -40 -2 -4 1 -11 7 -15 8 -4 9 -3 5 4 -4 7
-5 12 -3 12 17 0 206 -68 202 -72 -3 -3 7 -3 22 -1 23 4 25 2 13 -7 -12 -9
-11 -10 6 -6 11 4 63 -3 115 -13 102 -21 280 -41 366 -41 34 0 52 -4 48 -10
-3 -5 -3 -11 2 -11 35 -6 53 -5 53 2 0 5 -6 10 -12 10 -7 1 47 7 120 14 175
18 333 49 465 91 59 19 112 32 119 28 6 -4 8 -3 5 3 -4 6 14 18 41 28 74 28
209 98 306 159 48 31 93 53 99 49 5 -3 7 -1 4 4 -7 12 98 96 119 96 7 0 11 4
8 8 -7 12 58 58 75 52 12 -4 13 -2 3 4 -9 7 3 24 46 64 81 76 214 229 274 315
28 40 56 70 61 67 6 -3 7 -1 4 4 -4 6 16 48 43 93 28 46 50 88 50 94 0 6 5 4
11 -4 9 -13 10 -12 5 3 -3 10 8 46 28 85 18 37 50 112 70 167 21 55 42 110 47
123 l9 22 405 0 405 0 0 -131 c0 -124 1 -132 25 -164 42 -54 59 -57 338 -58
244 -1 255 0 289 21 19 12 39 18 43 14 5 -4 5 -2 1 5 -4 7 1 25 11 40 17 25
18 78 17 882 0 777 -2 859 -17 887 -9 17 -13 35 -9 39 4 5 2 5 -4 2 -7 -4 -18
0 -25 9 -7 9 -25 20 -39 26 -34 13 -535 11 -560 -2 -11 -6 -31 -26 -46 -45
-22 -29 -26 -44 -25 -96 0 -34 -4 -70 -10 -81 -8 -15 -8 -19 0 -14 7 5 11 -2
11 -18 l0 -26 -390 0 c-214 0 -396 3 -404 6 -8 3 -29 49 -47 101 -17 53 -60
152 -95 221 -35 69 -60 130 -57 135 3 6 2 7 -4 4 -6 -4 -25 17 -43 46 -104
162 -273 356 -409 468 -47 40 -99 86 -115 103 -16 17 -25 25 -21 17 6 -11 2
-10 -16 2 -13 10 -24 23 -24 30 -1 6 -7 11 -14 9 -7 -1 -48 20 -92 48 -43 28
-124 72 -179 100 -55 27 -99 51 -98 54 2 2 -1 8 -6 13 -5 5 -6 3 -2 -4 9 -16
-4 -16 -26 0 -15 12 -17 44 -20 279 l-3 266 -31 38 c-46 57 -74 74 -129 77
-28 2 -57 7 -64 12 -10 5 -12 4 -7 -3 5 -9 -9 -12 -48 -12 -31 0 -56 4 -56 9
0 4 -23 4 -51 -1 -35 -6 -55 -6 -64 2 -10 8 -14 7 -18 -2 -3 -10 -9 -11 -25
-1 -12 7 -24 9 -27 4 -3 -5 -14 -7 -25 -4 -20 5 -20 13 -19 377 1 204 4 361 6
349 2 -13 9 -23 15 -23 5 0 8 7 4 15 -5 13 32 15 280 15 223 0 283 -3 278 -13
-6 -9 -5 -9 7 0 9 7 93 13 255 15 239 4 242 5 286 31 125 73 159 239 73 352
-19 24 -30 46 -27 50 4 4 2 5 -3 4 -6 -2 -29 7 -52 19 l-42 22 -1193 2 c-656
2 -1263 0 -1348 -4z m1525 -2192 c116 -20 206 -47 198 -59 -3 -6 -1 -7 6 -3
17 11 73 -3 65 -16 -4 -6 -2 -8 4 -4 15 9 122 -33 122 -48 0 -8 7 -19 15 -26
18 -15 20 1 3 18 -17 17 -8 15 40 -8 24 -12 40 -25 37 -30 -4 -6 1 -7 11 -3
13 5 15 3 9 -7 -5 -8 -4 -11 3 -7 15 10 43 -3 35 -17 -3 -6 -3 -8 2 -4 11 11
47 -11 39 -24 -4 -7 -3 -8 4 -4 15 9 124 -62 116 -75 -3 -5 0 -8 8 -7 7 2 12
-3 10 -10 -1 -8 2 -11 7 -8 21 13 211 -169 203 -196 -1 -5 2 -7 7 -4 12 8 72
-64 64 -77 -3 -6 -1 -7 5 -3 8 4 36 -30 77 -93 227 -346 321 -775 264 -1206
-13 -101 -51 -265 -60 -260 -4 3 -5 -3 -2 -13 6 -24 -68 -223 -80 -215 -6 3
-7 1 -3 -5 8 -14 -60 -152 -76 -152 -6 0 -9 -3 -5 -6 10 -11 -23 -65 -35 -58
-7 4 -8 3 -4 -5 7 -10 -48 -96 -103 -162 -71 -85 -83 -98 -94 -95 -7 1 -8 1
-4 -2 5 -2 -12 -26 -39 -53 -26 -26 -51 -46 -56 -43 -5 3 -7 1 -6 -5 4 -13
-63 -62 -75 -54 -6 3 -7 1 -3 -5 8 -14 -84 -84 -101 -77 -7 2 -12 -1 -10 -7 3
-14 -104 -79 -121 -73 -7 3 -11 1 -8 -4 7 -10 -117 -67 -234 -109 -233 -82
-540 -109 -810 -71 -36 5 -72 9 -80 10 -10 0 -8 3 5 8 14 6 5 8 -30 8 -27 0
-90 12 -139 27 -99 31 -256 100 -268 119 -4 7 -8 9 -8 4 0 -4 -18 2 -40 13
-23 12 -38 25 -35 30 3 5 0 7 -8 5 -13 -6 -167 101 -167 115 0 5 -8 11 -18 15
-11 3 -48 35 -83 71 -35 36 -81 82 -102 102 -21 20 -35 42 -32 49 2 8 1 12 -4
8 -21 -13 -200 263 -185 286 4 7 3 9 -3 6 -6 -4 -28 31 -50 81 -50 108 -67
158 -57 173 4 8 3 9 -4 5 -7 -4 -12 -6 -12 -4 0 2 -14 56 -30 122 -33 132 -36
150 -17 141 6 -4 5 -1 -4 7 -32 26 -49 322 -29 498 18 162 31 219 49 213 13
-4 13 -3 2 5 -12 9 -10 25 14 109 31 111 98 272 117 284 7 5 10 9 5 9 -22 0
85 171 184 295 76 95 227 238 241 229 6 -4 8 -3 5 4 -9 13 72 74 86 65 6 -3 7
-1 4 4 -9 14 70 66 85 57 6 -4 8 -3 5 3 -8 13 190 116 209 109 8 -3 13 -2 10
3 -9 14 176 76 200 67 8 -3 12 -2 9 3 -6 11 66 28 200 47 111 16 434 11 550
-10z m-2449 -1543 c-4 -38 -11 -72 -17 -78 -5 -5 -9 -14 -9 -20 0 -5 5 -3 10
5 7 11 10 -1 10 -40 0 -30 3 -99 7 -153 l6 -97 -374 2 -374 3 -2 185 c-1 207
2 240 26 241 12 0 11 2 -4 9 -12 5 136 9 354 9 l374 1 -7 -67z m5014 -158 l0
-225 -358 0 -358 0 0 225 1 225 358 0 357 0 0 -225z"/>
<path d="M4993 5808 c-91 -7 -224 -36 -296 -64 -21 -8 -43 -12 -48 -9 -5 4 -9
2 -9 -3 0 -10 -50 -35 -57 -28 -3 3 -15 -4 -26 -15 -12 -11 -28 -17 -36 -14
-9 3 -12 3 -8 -1 9 -10 -114 -85 -126 -77 -6 3 -7 1 -4 -5 4 -5 -14 -26 -40
-45 -27 -20 -68 -56 -92 -81 -33 -33 -47 -42 -54 -33 -6 9 -7 8 -4 -3 2 -8
-17 -42 -43 -75 -72 -91 -135 -193 -173 -279 -18 -42 -36 -74 -39 -71 -2 3 -4
-3 -4 -13 1 -21 -36 -175 -44 -182 -3 -3 -5 -14 -5 -25 0 -11 -4 -67 -9 -125
-13 -172 12 -355 76 -545 22 -66 98 -223 131 -269 16 -23 18 -30 6 -38 -11 -8
-11 -9 3 -5 11 4 32 -15 71 -66 31 -40 67 -83 81 -96 14 -13 23 -29 19 -35 -3
-6 -3 -8 1 -4 4 3 42 -21 84 -55 43 -34 88 -70 102 -80 14 -10 18 -15 10 -11
-8 4 -11 3 -7 -1 4 -5 13 -10 20 -11 8 -1 60 -25 118 -53 57 -28 109 -51 115
-51 7 0 15 -7 18 -16 4 -10 13 -13 26 -9 25 8 62 -3 55 -16 -7 -10 -3 -11 70
-15 28 -1 91 -6 140 -11 50 -4 144 -4 210 1 66 5 143 9 170 9 28 0 39 2 26 5
-18 3 3 13 75 37 117 38 170 61 242 104 29 17 58 29 63 25 5 -3 8 -1 7 4 -2 5
33 36 77 69 44 33 102 83 129 111 27 28 54 48 59 45 6 -3 7 -2 4 4 -4 6 14 36
39 69 61 79 109 158 154 254 20 44 41 76 45 72 5 -4 5 -2 1 5 -9 16 35 163 47
156 6 -3 7 -1 4 4 -4 6 0 55 8 109 29 195 15 398 -41 574 -13 43 -22 85 -18
93 3 8 1 18 -5 22 -7 4 -9 -1 -6 -12 3 -10 -4 0 -15 22 -11 22 -17 46 -15 53
3 7 1 11 -3 8 -9 -5 -98 142 -95 156 2 4 -1 8 -6 8 -13 0 -100 111 -97 124 2
6 1 7 -2 3 -2 -5 -22 8 -43 29 -21 20 -35 42 -32 48 3 6 3 8 -2 4 -4 -4 -37
17 -72 46 -35 29 -93 70 -129 91 -48 28 -61 41 -52 48 10 6 9 8 -3 4 -10 -3
-59 12 -110 34 -201 87 -392 116 -636 97z m-536 -1061 c6 -4 14 -3 17 2 9 14
216 13 233 0 9 -9 13 -8 13 0 0 6 17 11 40 11 29 0 40 -4 40 -15 0 -8 5 -15
11 -15 6 0 9 7 5 15 -4 11 2 15 25 15 23 0 30 -4 26 -15 -8 -19 5 -26 23 -14
13 8 13 10 1 18 -8 5 78 9 214 10 172 1 231 -1 243 -11 12 -10 14 -10 8 0 -6
10 43 12 238 12 l246 -1 0 -180 0 -179 -712 2 -713 3 -3 154 c-4 196 1 216 45
188z"/>
</g>
</svg>
